<svg width="40" height="41" viewBox="0 0 40 41" fill="none" xmlns="http://www.w3.org/2000/svg">
<path d="M19.9978 10.5983C14.3224 10.5983 9.74457 15.1771 9.74457 20.8538C9.74457 26.5304 14.3224 31.1093 19.9978 31.1093C25.6732 31.1093 30.251 26.5304 30.251 20.8538C30.251 15.1771 25.6732 10.5983 19.9978 10.5983ZM19.9978 27.5212C16.3302 27.5212 13.3319 24.5311 13.3319 20.8538C13.3319 17.1764 16.3213 14.1863 19.9978 14.1863C23.6743 14.1863 26.6637 17.1764 26.6637 20.8538C26.6637 24.5311 23.6654 27.5212 19.9978 27.5212ZM33.0619 10.1788C33.0619 11.5087 31.9911 12.5708 30.6704 12.5708C29.3408 12.5708 28.2789 11.4997 28.2789 10.1788C28.2789 8.85778 29.3497 7.78671 30.6704 7.78671C31.9911 7.78671 33.0619 8.85778 33.0619 10.1788ZM39.8528 12.6065C39.7011 9.40224 38.9693 6.5639 36.6224 4.2254C34.2845 1.8869 31.4467 1.155 28.2432 0.994338C24.9414 0.8069 15.0452 0.8069 11.7435 0.994338C8.54881 1.14607 5.71111 1.87797 3.3642 4.21647C1.0173 6.55498 0.294488 9.39331 0.133863 12.5976C-0.0535322 15.9001 -0.0535322 25.7985 0.133863 29.101C0.285564 32.3053 1.0173 35.1436 3.3642 37.4821C5.71111 39.8206 8.53989 40.5525 11.7435 40.7132C15.0452 40.9006 24.9414 40.9006 28.2432 40.7132C31.4467 40.5614 34.2845 39.8296 36.6224 37.4821C38.9604 35.1436 39.6921 32.3053 39.8528 29.101C40.0402 25.7985 40.0402 15.909 39.8528 12.6065ZM35.5873 32.6445C34.8913 34.3939 33.5438 35.7416 31.7858 36.4468C29.1534 37.491 22.9069 37.2501 19.9978 37.2501C17.0887 37.2501 10.8332 37.4821 8.20971 36.4468C6.46069 35.7506 5.11323 34.4028 4.40826 32.6445C3.3642 30.0114 3.60514 23.7635 3.60514 20.8538C3.60514 17.944 3.37313 11.6872 4.40826 9.06306C5.1043 7.31365 6.45177 5.96589 8.20971 5.26077C10.8422 4.21647 17.0887 4.45746 19.9978 4.45746C22.9069 4.45746 29.1623 4.2254 31.7858 5.26077C33.5349 5.95696 34.8823 7.30472 35.5873 9.06306C36.6314 11.6961 36.3904 17.944 36.3904 20.8538C36.3904 23.7635 36.6314 30.0203 35.5873 32.6445Z" fill="white"/>
</svg>
